<svg width="37" height="37" viewBox="0 0 37 37" fill="none" xmlns="http://www.w3.org/2000/svg">
<circle cx="18.5" cy="18.5" r="18" stroke="#3A539B"/>
<g clip-path="url(#clip0)">
<path d="M11.2899 21.1065L12.15 21.1065L14.5078 21.1065L14.5078 20.9635L11.1645 20.9635L11.1645 24.3069L11.3075 24.3069L11.3075 23.1398L11.3075 21.6903L12.2012 22.8315C14.2447 25.4411 17.8546 26.4881 21.0608 25.1601M11.2899 21.1065L21.0608 25.1601M11.2899 21.1065L11.7156 21.854C12.5278 23.2803 13.7827 24.3906 15.3213 25.0279C17.1534 25.7868 19.174 25.7868 21.0061 25.0279L20.8161 24.5694L21.0061 25.0279C23.2661 24.0918 24.8854 22.1536 25.4127 19.7894L25.5538 19.8113M11.2899 21.1065L25.5538 19.8113M21.0608 25.1601C22.2836 24.6536 23.3543 23.8348 24.157 22.7932C24.8339 21.9149 25.3118 20.8922 25.5538 19.8113M21.0608 25.1601L25.5538 19.8113" stroke="#3A539B"/>
<path d="M15.2666 11.1715C17.1357 10.3974 19.1917 10.3974 21.0608 11.1715C22.2867 11.6793 23.3327 12.479 24.1258 13.4947L25.0199 14.6397L25.0199 13.187L25.0199 12.0248L25.1629 12.0248L25.1629 15.3681L21.8196 15.3681L21.8196 15.2251L24.1774 15.2251L25.0375 15.2251L24.6118 14.4777C23.7996 13.0514 22.5447 11.941 21.0061 11.3037C19.174 10.5449 17.1534 10.5449 15.3213 11.3037L15.5127 11.7657L15.3213 11.3037C13.0613 12.2399 11.4419 14.178 10.9147 16.5422L10.7736 16.5203C11.0156 15.4395 11.4935 14.4168 12.1705 13.5384L12.1705 13.5384C12.9731 12.4968 14.0437 11.6781 15.2666 11.1715ZM15.2666 11.1715L15.0752 10.7096M15.2666 11.1715L15.0752 10.7096M15.0752 10.7096C13.7721 11.2494 12.6307 12.122 11.7744 13.2332L24.0199 12.6064C23.2515 11.7964 22.3145 11.1497 21.2522 10.7096C19.2605 9.88468 17.0668 9.88468 15.0752 10.7096Z" stroke="#3A539B"/>
</g>
<defs>
<clipPath id="clip0">
<rect width="16.1455" height="16.1455" fill="white" transform="translate(10.0909 26.2364) rotate(-90)"/>
</clipPath>
</defs>
</svg>
