<svg width="10" height="10" viewBox="0 0 10 10" fill="none" xmlns="http://www.w3.org/2000/svg">
<g clip-path="url(#clip0)">
<mask id="path-1-inside-1" fill="white">
<path d="M6.64194 8.96541C5.58309 9.40399 4.41683 9.40401 3.35799 8.96541C2.4684 8.59692 1.74423 7.95586 1.2753 7.13242L3.04531 7.13242L3.04531 6.42446L0.355194 6.42446L0.355194 9.1146L1.06315 9.1146L1.06315 8.08205C2.41214 9.80474 4.795 10.4967 6.91287 9.61949C7.71999 9.28517 8.42693 8.74469 8.95731 8.05646C9.47149 7.38924 9.8116 6.59635 9.94082 5.76358L9.24122 5.65501C9.00927 7.14981 8.03758 8.38732 6.64194 8.96541Z"/>
</mask>
<path d="M6.64194 8.96541L7.02461 9.88929L7.02462 9.88929L6.64194 8.96541ZM3.35799 8.96541L3.74068 8.04153L3.74068 8.04153L3.35799 8.96541ZM1.2753 7.13242L1.2753 6.13242L-0.444946 6.13242L0.406324 7.62727L1.2753 7.13242ZM3.04531 7.13242L3.04531 8.13242L4.04531 8.13242L4.04531 7.13242L3.04531 7.13242ZM3.04531 6.42446L4.04531 6.42446L4.04531 5.42446L3.04531 5.42446L3.04531 6.42446ZM0.355194 6.42446L0.355194 5.42446L-0.644806 5.42446L-0.644806 6.42446L0.355194 6.42446ZM0.355194 9.1146L-0.644806 9.1146L-0.644806 10.1146L0.355194 10.1146L0.355194 9.1146ZM1.06315 9.1146L1.06315 10.1146L2.06315 10.1146L2.06315 9.1146L1.06315 9.1146ZM1.06315 8.08205L1.85048 7.46551L0.0631498 5.18304L0.0631499 8.08205L1.06315 8.08205ZM6.91287 9.61949L7.29555 10.5434L7.29556 10.5434L6.91287 9.61949ZM8.95731 8.05646L9.74939 8.66688L9.74939 8.66687L8.95731 8.05646ZM9.94082 5.76358L10.929 5.91692L11.0823 4.92877L10.0942 4.77541L9.94082 5.76358ZM9.24122 5.65501L9.39458 4.66684L8.40639 4.51347L8.25305 5.50167L9.24122 5.65501ZM6.25926 8.04153C5.44543 8.37862 4.55448 8.37863 3.74068 8.04153L2.97529 9.88928C4.27919 10.4294 5.72076 10.4294 7.02461 9.88929L6.25926 8.04153ZM3.74068 8.04153C3.05574 7.75781 2.50295 7.26739 2.14428 6.63756L0.406324 7.62727C0.985509 8.64433 1.88105 9.43602 2.9753 9.88929L3.74068 8.04153ZM1.2753 8.13242L3.04531 8.13242L3.04531 6.13242L1.2753 6.13242L1.2753 8.13242ZM4.04531 7.13242L4.04531 6.42446L2.04531 6.42446L2.04531 7.13242L4.04531 7.13242ZM3.04531 5.42446L0.355194 5.42446L0.355194 7.42446L3.04531 7.42446L3.04531 5.42446ZM-0.644806 6.42446L-0.644806 9.1146L1.35519 9.1146L1.35519 6.42446L-0.644806 6.42446ZM0.355194 10.1146L1.06315 10.1146L1.06315 8.1146L0.355194 8.1146L0.355194 10.1146ZM2.06315 9.1146L2.06315 8.08205L0.0631499 8.08205L0.0631499 9.1146L2.06315 9.1146ZM0.275821 8.69858C1.89374 10.7647 4.75123 11.5973 7.29555 10.5434L6.53019 8.69561C4.83876 9.39622 2.93054 8.84478 1.85048 7.46551L0.275821 8.69858ZM7.29556 10.5434C8.26327 10.1425 9.11169 9.49437 9.74939 8.66688L8.16522 7.44605C7.74217 7.99501 7.17671 8.42781 6.53019 8.69561L7.29556 10.5434ZM9.74939 8.66687C10.3664 7.86617 10.774 6.91605 10.929 5.91692L8.95265 5.61024C8.84924 6.27665 8.57655 6.9123 8.16522 7.44605L9.74939 8.66687ZM10.0942 4.77541L9.39458 4.66684L9.08786 6.64318L9.78746 6.75175L10.0942 4.77541ZM8.25305 5.50167C8.07453 6.65212 7.33189 7.59723 6.25925 8.04153L7.02462 9.88929C8.74327 9.1774 9.94401 7.6475 10.2294 5.80834L8.25305 5.50167Z" fill="white" mask="url(#path-1-inside-1)"/>
<mask id="path-3-inside-2" fill="white">
<path d="M6.91289 0.383193C5.67935 -0.12774 4.32064 -0.12774 3.0871 0.383193C2.27998 0.717514 1.57304 1.25799 1.04268 1.94622C0.528471 2.61347 0.188369 3.40636 0.0591431 4.23913L0.758746 4.34769C0.990696 2.8529 1.96239 1.61539 3.35803 1.0373C4.41687 0.598719 5.58314 0.598719 6.64198 1.0373C7.53158 1.40577 8.25574 2.04685 8.72467 2.87027L6.95466 2.87027L6.95466 3.57823L9.64478 3.57823L9.64478 0.888108L8.93682 0.888108L8.93682 1.9176C8.41253 1.24615 7.72131 0.718057 6.91289 0.383193Z"/>
</mask>
<path d="M6.91289 0.383193L7.29558 -0.540684L7.29557 -0.540691L6.91289 0.383193ZM3.0871 0.383193L2.70442 -0.540691L2.70441 -0.540685L3.0871 0.383193ZM1.04268 1.94622L1.83477 2.55664L1.83478 2.55662L1.04268 1.94622ZM0.0591431 4.23913L-0.92903 4.08579L-1.08237 5.07398L-0.0941864 5.22731L0.0591431 4.23913ZM0.758746 4.34769L0.605416 5.33586L1.59358 5.48919L1.74692 4.50102L0.758746 4.34769ZM3.35803 1.0373L2.97535 0.113417L2.97535 0.113419L3.35803 1.0373ZM6.64198 1.0373L6.2593 1.96118L6.25931 1.96118L6.64198 1.0373ZM8.72467 2.87027L8.72467 3.87027L10.4449 3.87027L9.59364 2.37541L8.72467 2.87027ZM6.95466 2.87027L6.95466 1.87027L5.95466 1.87027L5.95466 2.87027L6.95466 2.87027ZM6.95466 3.57823L5.95466 3.57823L5.95466 4.57823L6.95466 4.57823L6.95466 3.57823ZM9.64478 3.57823L9.64478 4.57823L10.6448 4.57823L10.6448 3.57823L9.64478 3.57823ZM9.64478 0.888108L10.6448 0.888108L10.6448 -0.111892L9.64478 -0.111892L9.64478 0.888108ZM8.93682 0.888108L8.93682 -0.111892L7.93682 -0.111892L7.93682 0.888108L8.93682 0.888108ZM8.93682 1.9176L8.14864 2.53304L9.93682 4.82314L9.93682 1.9176L8.93682 1.9176ZM7.29557 -0.540691C5.817 -1.15311 4.18299 -1.15311 2.70442 -0.540691L3.46977 1.30708C4.45829 0.897632 5.5417 0.897632 6.53022 1.30708L7.29557 -0.540691ZM2.70441 -0.540685C1.7367 -0.139843 0.888274 0.508314 0.250586 1.33583L1.83478 2.55662C2.2578 2.00767 2.82326 1.57487 3.46978 1.30707L2.70441 -0.540685ZM0.2506 1.33581C-0.366473 2.13653 -0.773989 3.08666 -0.92903 4.08579L1.04732 4.39247C1.15073 3.72607 1.42341 3.09041 1.83477 2.55664L0.2506 1.33581ZM-0.0941864 5.22731L0.605416 5.33586L0.912075 3.35951L0.212473 3.25096L-0.0941864 5.22731ZM1.74692 4.50102C1.92544 3.35059 2.66808 2.40548 3.74072 1.96118L2.97535 0.113419C1.2567 0.825307 0.0559559 2.35522 -0.229428 4.19435L1.74692 4.50102ZM3.74071 1.96118C4.55453 1.62409 5.44549 1.62409 6.2593 1.96118L7.02466 0.113417C5.72079 -0.426654 4.27922 -0.426654 2.97535 0.113417L3.74071 1.96118ZM6.25931 1.96118C6.94422 2.24487 7.49702 2.73531 7.8557 3.36514L9.59364 2.37541C9.01447 1.35839 8.11893 0.566661 7.02465 0.113414L6.25931 1.96118ZM8.72467 1.87027L6.95466 1.87027L6.95466 3.87027L8.72467 3.87027L8.72467 1.87027ZM5.95466 2.87027L5.95466 3.57823L7.95466 3.57823L7.95466 2.87027L5.95466 2.87027ZM6.95466 4.57823L9.64478 4.57823L9.64478 2.57823L6.95466 2.57823L6.95466 4.57823ZM10.6448 3.57823L10.6448 0.888108L8.64478 0.888108L8.64478 3.57823L10.6448 3.57823ZM9.64478 -0.111892L8.93682 -0.111892L8.93682 1.88811L9.64478 1.88811L9.64478 -0.111892ZM7.93682 0.888108L7.93682 1.9176L9.93682 1.9176L9.93682 0.888108L7.93682 0.888108ZM9.72501 1.30216C9.0939 0.493906 8.2627 -0.140083 7.29558 -0.540684L6.5302 1.30707C7.17992 1.5762 7.73117 1.99839 8.14864 2.53304L9.72501 1.30216Z" fill="white" mask="url(#path-3-inside-2)"/>
</g>
<defs>
<clipPath id="clip0">
<rect width="10" height="10" fill="white" transform="translate(0 10) rotate(-90)"/>
</clipPath>
</defs>
</svg>
